# xmcd
#
# Track frame offsets: 
#        150
#        14067
#        27464
#        40544
#        55590
#        70960
#        86677
#        103581
#        117334
#        133066
#        146496
#        161138
#        175559
#
# Disc length: 2598 seconds
#
# Revision: 0
# Processed by: cddbd v1.5.2PL0 Copyright (c) Steve Scherf et al.
# Submitted via: ExactAudioCopy v1.0b3
#
DISCID=af0a240d
DTITLE=Christie Lamb - Loaded
DYEAR=2017
DGENRE=Country
TTITLE0=Bad Habit
TTITLE1=Flamethrower
TTITLE2=Magic
TTITLE3=Party's Over
TTITLE4=Loaded
TTITLE5=Ghost Gums Sway
TTITLE6=Judgement Day
TTITLE7=Lonely Too Long
TTITLE8=Takedown
TTITLE9=Boomerang
TTITLE10=Stronger Than You Know
TTITLE11=Firebug
TTITLE12=I Get Back Up
EXTD=
EXTT0=
EXTT1=
EXTT2=
EXTT3=
EXTT4=
EXTT5=
EXTT6=
EXTT7=
EXTT8=
EXTT9=
EXTT10=
EXTT11=
EXTT12=
PLAYORDER=
